<?xml version="1.0" encoding="UTF-8" standalone="no"?>
<!-- Created with Inkscape (http://www.inkscape.org/) -->

<svg
   xmlns:ns0="http://www.iki.fi/pav/software/textext/"
   xmlns:dc="http://purl.org/dc/elements/1.1/"
   xmlns:cc="http://creativecommons.org/ns#"
   xmlns:rdf="http://www.w3.org/1999/02/22-rdf-syntax-ns#"
   xmlns:svg="http://www.w3.org/2000/svg"
   xmlns="http://www.w3.org/2000/svg"
   xmlns:sodipodi="http://sodipodi.sourceforge.net/DTD/sodipodi-0.dtd"
   xmlns:inkscape="http://www.inkscape.org/namespaces/inkscape"
   width="620.05713"
   height="341.4357"
   id="svg2"
   version="1.1"
   inkscape:version="0.48.2 r9819"
   sodipodi:docname="proximalModulesNonSmooth.svg">
  <sodipodi:namedview
     id="base"
     pagecolor="#ffffff"
     bordercolor="#666666"
     borderopacity="1.0"
     inkscape:pageopacity="0.0"
     inkscape:pageshadow="2"
     inkscape:zoom="0.7"
     inkscape:cx="189.53369"
     inkscape:cy="169.06298"
     inkscape:document-units="px"
     inkscape:current-layer="layer1"
     showgrid="false"
     inkscape:window-width="1280"
     inkscape:window-height="717"
     inkscape:window-x="0"
     inkscape:window-y="30"
     inkscape:window-maximized="1"
     fit-margin-top="0"
     fit-margin-left="0"
     fit-margin-right="0"
     fit-margin-bottom="0" />
  <defs
     id="defs4" />
  <metadata
     id="metadata7">
    <rdf:RDF>
      <cc:Work
         rdf:about="">
        <dc:format>image/svg+xml</dc:format>
        <dc:type
           rdf:resource="http://purl.org/dc/dcmitype/StillImage" />
        <dc:title></dc:title>
      </cc:Work>
    </rdf:RDF>
  </metadata>
  <g
     inkscape:label="Capa 1"
     inkscape:groupmode="layer"
     id="layer1"
     transform="translate(-74.971426,-113.0479)">
    <path
       style="fill:#cef0ff;fill-opacity:1;stroke:#000000;stroke-width:7.19999981;stroke-miterlimit:4;stroke-opacity:1"
       d="m 92.991503,116.6479 584.016967,0 c 7.98872,0 14.42007,6.43135 14.42007,14.42008 l 0,156.87413 c 0,7.98872 -6.43135,14.42007 -14.42007,14.42007 l -85.64391,0 -62.21535,-70 -53.53624,0 -58.96482,70 -74.21534,0 -63.14711,-70 -50.14497,0 -61.57356,70 -74.575667,0 c -7.988723,0 -14.420077,-6.43135 -14.420077,-14.42007 l 0,-156.87413 c 0,-7.98873 6.431354,-14.42008 14.420077,-14.42008 z"
       id="rect2985"
       inkscape:connector-curvature="0"
       sodipodi:nodetypes="sssssccccccccssss" />
    <text
       xml:space="preserve"
       style="font-size:63.28154755px;font-style:normal;font-weight:normal;text-align:center;line-height:125%;letter-spacing:0px;word-spacing:0px;text-anchor:middle;fill:#000000;fill-opacity:1;stroke:none;font-family:Bitstream Vera Sans"
       x="384.76825"
       y="197.15862"
       id="text3755"
       sodipodi:linespacing="125%"><tspan
         sodipodi:role="line"
         id="tspan3757"
         x="384.76825"
         y="197.15862">Proximal method</tspan></text>
    <text
       xml:space="preserve"
       style="font-size:71.90031433px;font-style:normal;font-weight:normal;text-align:center;line-height:125%;letter-spacing:0px;word-spacing:0px;text-anchor:middle;fill:#000000;fill-opacity:1;stroke:none;font-family:Bitstream Vera Sans"
       x="377.14288"
       y="289.79074"
       id="text3797"
       sodipodi:linespacing="125%"><tspan
         sodipodi:role="line"
         id="tspan3799"
         x="377.14288"
         y="289.79074">+</tspan></text>
    <path
       style="fill:#f8cac9;fill-opacity:1;stroke:#000000;stroke-width:7.09999990000000025;stroke-linecap:butt;stroke-linejoin:miter;stroke-miterlimit:4;stroke-opacity:1;stroke-dasharray:none"
       d="m 149.14286,337.36218 85.71428,-93.57143 40.00001,0 82.85713,93.57143 0,113.57143 -208.57142,0 z"
       id="path3801"
       inkscape:connector-curvature="0"
       sodipodi:nodetypes="ccccccc" />
    <g
       style="font-style:normal;font-variant:normal;font-weight:normal;font-stretch:normal;letter-spacing:normal;word-spacing:normal;text-anchor:start;fill:none;stroke:#000000;stroke-linecap:butt;stroke-linejoin:miter;stroke-miterlimit:10.43299961;stroke-opacity:1;stroke-dasharray:none;stroke-dashoffset:0"
       id="content"
       transform="matrix(5.5944006,0,0,-5.5944006,-1049.4794,4277.3984)"
       xml:space="preserve"
       stroke-miterlimit="10.433"
       font-style="normal"
       font-variant="normal"
       font-weight="normal"
       font-stretch="normal"
       font-size-adjust="none"
       letter-spacing="normal"
       word-spacing="normal"
       ns0:text="$f(x)$"
       ns0:preamble="">
<path
   style="fill:#000000;stroke-width:0"
   inkscape:connector-curvature="0"
   d="m 227.09,711.11 h 0.86 c 0.2,0 0.3,0 0.3,0.19 0,0.11 -0.1,0.11 -0.27,0.11 h -0.83 l 0.21,1.14 c 0.04,0.21 0.18,0.92 0.24,1.03 0.09,0.19 0.26,0.34 0.47,0.34 0.04,0 0.3,0 0.49,-0.18 -0.44,-0.04 -0.54,-0.39 -0.54,-0.53 0,-0.23 0.18,-0.35 0.37,-0.35 0.26,0 0.54,0.22 0.54,0.6 0,0.45 -0.45,0.68 -0.86,0.68 -0.34,0 -0.97,-0.18 -1.27,-1.16 -0.06,-0.21 -0.09,-0.31 -0.33,-1.57 h -0.68 c -0.19,0 -0.3,0 -0.3,-0.19 0,-0.11 0.08,-0.11 0.27,-0.11 h 0.66 l -0.74,-3.94 c -0.19,-0.96 -0.35,-1.87 -0.87,-1.87 -0.04,0 -0.29,0 -0.48,0.18 0.46,0.03 0.55,0.39 0.55,0.54 0,0.23 -0.18,0.35 -0.37,0.35 -0.26,0 -0.55,-0.22 -0.55,-0.6 0,-0.45 0.44,-0.68 0.85,-0.68 0.55,0 0.95,0.58 1.12,0.96 0.32,0.63 0.55,1.83 0.56,1.9 z"
   id="path3815" />
<path
   style="fill:#000000;stroke-width:0"
   inkscape:connector-curvature="0"
   d="m 232.68,704.74 0,0 0,0.01 0,0 0,0 0,0.01 0,0 0,0 0,0.01 0,0 -0.01,0 0,0.01 0,0 -0.01,0.01 0,0 0,0.01 -0.01,0.01 0,0 -0.01,0.01 0,0 -0.01,0.01 0,0 0,0.01 -0.01,0 0,0 -0.01,0.01 0,0 0,0.01 -0.01,0 0,0.01 -0.01,0 0,0.01 -0.01,0.01 -0.01,0 0,0.01 -0.01,0 0,0.01 -0.01,0.01 -0.01,0.01 -0.01,0 0,0.01 -0.01,0.01 -0.01,0.01 c -1.24,1.25 -1.56,3.13 -1.56,4.65 0,1.73 0.38,3.47 1.6,4.71 0.13,0.12 0.13,0.14 0.13,0.17 0,0.07 -0.04,0.1 -0.1,0.1 -0.1,0 -0.99,-0.68 -1.58,-1.94 -0.51,-1.1 -0.63,-2.2 -0.63,-3.04 0,-0.77 0.11,-1.98 0.66,-3.1 0.59,-1.23 1.45,-1.87 1.55,-1.87 0.06,0 0.1,0.03 0.1,0.1 z"
   id="path3817" />
<path
   style="fill:#000000;stroke-width:0"
   inkscape:connector-curvature="0"
   d="m 236.59,710.13 0,0.03 0.01,0.03 0.01,0.03 0.01,0.04 0.01,0.03 0.01,0.05 0.01,0.04 0.02,0.04 0.01,0.05 0.02,0.05 0.02,0.05 0.02,0.05 0.02,0.05 0.03,0.05 0.02,0.05 0.03,0.04 0.03,0.05 0.03,0.05 0.03,0.05 0.04,0.04 0.04,0.04 0.04,0.04 0.04,0.04 0.04,0.04 0.05,0.03 0.05,0.03 0.02,0.01 0.03,0.01 0.02,0.02 0.03,0.01 0.03,0 0.03,0.01 0.03,0.01 0.03,0 0.03,0.01 0.03,0 0.03,0 0.03,0 c 0.05,0 0.29,0 0.5,-0.12 -0.28,-0.05 -0.48,-0.3 -0.48,-0.54 0,-0.16 0.11,-0.35 0.38,-0.35 0.22,0 0.54,0.18 0.54,0.58 0,0.52 -0.59,0.65 -0.93,0.65 -0.58,0 -0.93,-0.52 -1.04,-0.75 -0.25,0.65 -0.79,0.75 -1.08,0.75 -1.04,0 -1.61,-1.28 -1.61,-1.53 0,-0.1 0.1,-0.1 0.12,-0.1 0.08,0 0.11,0.02 0.13,0.11 0.34,1.06 1,1.3 1.34,1.3 0.19,0 0.54,-0.08 0.54,-0.66 0,-0.31 -0.17,-0.98 -0.54,-2.37 -0.16,-0.62 -0.51,-1.04 -0.95,-1.04 -0.06,0 -0.29,0 -0.5,0.13 0.25,0.05 0.47,0.26 0.47,0.54 0,0.27 -0.22,0.35 -0.37,0.35 -0.3,0 -0.55,-0.26 -0.55,-0.58 0,-0.45 0.5,-0.65 0.94,-0.65 0.66,0 1.02,0.69 1.05,0.75 0.12,-0.37 0.48,-0.75 1.07,-0.75 1.03,0 1.6,1.28 1.6,1.53 0,0.1 -0.09,0.1 -0.12,0.1 -0.09,0 -0.11,-0.04 -0.13,-0.11 -0.33,-1.07 -1.01,-1.31 -1.33,-1.31 -0.38,0 -0.54,0.32 -0.54,0.66 0,0.22 0.06,0.44 0.17,0.88 z"
   id="path3819" />
<path
   style="fill:#000000;stroke-width:0"
   inkscape:connector-curvature="0"
   d="m 241.83,709.61 0,0.08 0,0.07 0,0.08 0,0.08 -0.01,0.17 -0.01,0.18 -0.02,0.18 -0.02,0.19 -0.03,0.2 -0.03,0.19 -0.04,0.21 -0.05,0.21 -0.05,0.21 -0.06,0.21 -0.07,0.21 -0.08,0.21 -0.04,0.11 -0.05,0.11 -0.05,0.1 -0.05,0.11 c -0.6,1.22 -1.45,1.87 -1.55,1.87 -0.06,0 -0.1,-0.04 -0.1,-0.1 0,-0.03 0,-0.05 0.19,-0.23 0.97,-0.98 1.54,-2.57 1.54,-4.65 0,-1.7 -0.37,-3.45 -1.6,-4.7 -0.13,-0.12 -0.13,-0.14 -0.13,-0.17 0,-0.06 0.04,-0.1 0.1,-0.1 0.1,0 1,0.67 1.58,1.94 0.51,1.09 0.63,2.2 0.63,3.03 z"
   id="path3821" />
</g>    <text
       xml:space="preserve"
       style="font-size:41.89425659px;font-style:normal;font-weight:normal;text-align:center;line-height:125%;letter-spacing:0px;word-spacing:0px;text-anchor:middle;fill:#000000;fill-opacity:1;stroke:none;font-family:Bitstream Vera Sans"
       x="252.76375"
       y="382.56152"
       id="text3755-9"
       sodipodi:linespacing="125%"><tspan
         sodipodi:role="line"
         id="tspan3757-8"
         x="252.76375"
         y="382.56152">Proximity</tspan><tspan
         id="tspan3858"
         sodipodi:role="line"
         x="252.76375"
         y="434.92935">operator</tspan></text>
    <path
       sodipodi:nodetypes="ccccccc"
       inkscape:connector-curvature="0"
       id="path3860"
       d="m 397.71429,337.36218 85.71428,-93.57143 40.00001,0 82.85713,93.57143 0,113.57143 -208.57142,0 z"
       style="fill:#f8cac9;fill-opacity:1;stroke:#000000;stroke-width:7.0999999;stroke-linecap:butt;stroke-linejoin:miter;stroke-miterlimit:4;stroke-opacity:1;stroke-dasharray:none" />
    <text
       sodipodi:linespacing="125%"
       id="text3872"
       y="382.56152"
       x="501.33517"
       style="font-size:41.89425659px;font-style:normal;font-weight:normal;text-align:center;line-height:125%;letter-spacing:0px;word-spacing:0px;text-anchor:middle;fill:#000000;fill-opacity:1;stroke:none;font-family:Bitstream Vera Sans"
       xml:space="preserve"><tspan
         y="382.56152"
         x="501.33517"
         sodipodi:role="line"
         id="tspan3876">Proximity</tspan><tspan
         y="434.92935"
         x="501.33517"
         sodipodi:role="line"
         id="tspan3939">operator</tspan></text>
    <g
       style="font-style:normal;font-variant:normal;font-weight:normal;font-stretch:normal;letter-spacing:normal;word-spacing:normal;text-anchor:start;fill:none;stroke:#000000;stroke-linecap:butt;stroke-linejoin:miter;stroke-miterlimit:10.43299961;stroke-opacity:1;stroke-dasharray:none;stroke-dashoffset:0"
       ns0:preamble=""
       ns0:text="$r(x)$"
       word-spacing="normal"
       letter-spacing="normal"
       font-size-adjust="none"
       font-stretch="normal"
       font-weight="normal"
       font-variant="normal"
       font-style="normal"
       stroke-miterlimit="10.433"
       xml:space="preserve"
       transform="matrix(5.5944006,0,0,-5.5944006,-800.90797,4277.3984)"
       id="g3901">
<path
   id="path3903"
   d="m 224.31,707.71 0,-0.01 -0.01,-0.02 0,-0.01 0,-0.02 -0.01,-0.03 -0.01,-0.03 0,-0.03 -0.01,-0.04 -0.01,-0.03 -0.01,-0.03 0,-0.01 0,-0.02 -0.01,-0.01 0,-0.02 0,-0.01 -0.01,-0.01 0,-0.02 0,-0.01 0,-0.01 0,-0.01 -0.01,-0.01 0,-0.01 0,-0.01 0,0 0,-0.01 0,-0.01 c 0,-0.18 0.14,-0.26 0.29,-0.26 0.12,0 0.3,0.07 0.37,0.27 0.02,0.04 0.36,1.4 0.4,1.58 0.08,0.33 0.26,1.02 0.32,1.29 0.03,0.13 0.31,0.6 0.55,0.82 0.08,0.07 0.37,0.32 0.8,0.32 0.26,0 0.41,-0.11 0.42,-0.11 -0.3,-0.05 -0.52,-0.29 -0.52,-0.55 0,-0.16 0.11,-0.35 0.38,-0.35 0.27,0 0.55,0.23 0.55,0.59 0,0.34 -0.32,0.64 -0.83,0.64 -0.65,0 -1.09,-0.48 -1.27,-0.76 -0.08,0.45 -0.44,0.76 -0.91,0.76 -0.46,0 -0.65,-0.38 -0.74,-0.56 -0.18,-0.34 -0.31,-0.94 -0.31,-0.97 0,-0.1 0.1,-0.1 0.12,-0.1 0.1,0 0.11,0.01 0.17,0.23 0.17,0.71 0.37,1.18 0.73,1.18 0.17,0 0.31,-0.08 0.31,-0.45 0,-0.21 -0.03,-0.32 -0.16,-0.84 z"
   inkscape:connector-curvature="0"
   style="fill:#000000;stroke-width:0" />
<path
   id="path3905"
   d="m 231.5,704.74 0,0 0,0.01 0,0 0,0 0,0.01 0,0 0,0 0,0.01 0,0 0,0 -0.01,0.01 0,0 0,0.01 -0.01,0 0,0.01 -0.01,0.01 0,0 -0.01,0.01 0,0 0,0.01 -0.01,0 0,0.01 -0.01,0 0,0 0,0.01 -0.01,0 0,0.01 -0.01,0 0,0.01 -0.01,0 0,0.01 -0.01,0.01 0,0 -0.01,0.01 -0.01,0 0,0.01 -0.01,0.01 -0.01,0.01 0,0 -0.01,0.01 -0.01,0.01 -0.01,0.01 c -1.24,1.25 -1.56,3.13 -1.56,4.65 0,1.73 0.38,3.47 1.6,4.71 0.13,0.12 0.13,0.14 0.13,0.17 0,0.07 -0.04,0.1 -0.1,0.1 -0.1,0 -0.99,-0.68 -1.58,-1.94 -0.51,-1.1 -0.63,-2.2 -0.63,-3.04 0,-0.77 0.11,-1.98 0.66,-3.1 0.6,-1.23 1.45,-1.87 1.55,-1.87 0.06,0 0.1,0.03 0.1,0.1 z"
   inkscape:connector-curvature="0"
   style="fill:#000000;stroke-width:0" />
<path
   id="path3907"
   d="m 235.41,710.13 0,0.03 0.01,0.03 0.01,0.03 0.01,0.04 0.01,0.03 0.01,0.05 0.01,0.04 0.02,0.04 0.01,0.05 0.02,0.05 0.02,0.05 0.02,0.05 0.02,0.05 0.03,0.05 0.02,0.05 0.03,0.04 0.03,0.05 0.03,0.05 0.04,0.05 0.03,0.04 0.04,0.04 0.04,0.04 0.04,0.04 0.04,0.04 0.05,0.03 0.05,0.03 0.02,0.01 0.03,0.01 0.03,0.02 0.02,0.01 0.03,0 0.03,0.01 0.03,0.01 0.03,0 0.03,0.01 0.03,0 0.03,0 0.03,0 c 0.05,0 0.29,0 0.5,-0.12 -0.28,-0.05 -0.48,-0.3 -0.48,-0.54 0,-0.16 0.11,-0.35 0.38,-0.35 0.22,0 0.54,0.18 0.54,0.58 0,0.52 -0.59,0.65 -0.93,0.65 -0.57,0 -0.92,-0.52 -1.04,-0.75 -0.25,0.65 -0.79,0.75 -1.08,0.75 -1.04,0 -1.6,-1.28 -1.6,-1.53 0,-0.1 0.1,-0.1 0.12,-0.1 0.08,0 0.1,0.02 0.13,0.11 0.33,1.06 0.99,1.3 1.33,1.3 0.19,0 0.54,-0.08 0.54,-0.66 0,-0.31 -0.17,-0.98 -0.54,-2.37 -0.16,-0.62 -0.51,-1.04 -0.95,-1.04 -0.06,0 -0.29,0 -0.49,0.13 0.25,0.05 0.46,0.26 0.46,0.54 0,0.27 -0.21,0.35 -0.37,0.35 -0.29,0 -0.54,-0.26 -0.54,-0.58 0,-0.45 0.5,-0.65 0.93,-0.65 0.66,0 1.02,0.69 1.05,0.75 0.12,-0.37 0.48,-0.75 1.08,-0.75 1.02,0 1.59,1.28 1.59,1.53 0,0.1 -0.09,0.1 -0.12,0.1 -0.09,0 -0.11,-0.04 -0.13,-0.11 -0.33,-1.07 -1,-1.31 -1.32,-1.31 -0.39,0 -0.55,0.32 -0.55,0.66 0,0.22 0.06,0.44 0.17,0.88 z"
   inkscape:connector-curvature="0"
   style="fill:#000000;stroke-width:0" />
<path
   id="path3909"
   d="m 240.65,709.61 0,0.08 0,0.07 0,0.08 0,0.08 -0.01,0.17 -0.01,0.18 -0.02,0.18 -0.02,0.19 -0.03,0.2 -0.03,0.19 -0.04,0.21 -0.05,0.21 -0.05,0.21 -0.06,0.21 -0.07,0.21 -0.08,0.21 -0.04,0.11 -0.05,0.11 -0.04,0.1 -0.06,0.11 c -0.59,1.22 -1.45,1.87 -1.55,1.87 -0.06,0 -0.1,-0.04 -0.1,-0.1 0,-0.03 0,-0.05 0.19,-0.23 0.98,-0.98 1.54,-2.57 1.54,-4.65 0,-1.7 -0.36,-3.45 -1.6,-4.7 -0.13,-0.12 -0.13,-0.14 -0.13,-0.17 0,-0.06 0.04,-0.1 0.1,-0.1 0.1,0 1,0.67 1.58,1.94 0.51,1.09 0.63,2.2 0.63,3.03 z"
   inkscape:connector-curvature="0"
   style="fill:#000000;stroke-width:0" />
</g>  </g>
</svg>
